<svg id="Layer_1" enable-background="new 0 0 512 512" height="512" viewBox="0 0 512 512" width="512" xmlns="http://www.w3.org/2000/svg"><g><g id="XMLID_23_"><g><g id="XMLID_959_"><g id="XMLID_960_"><g id="XMLID_961_"><g id="XMLID_963_"><g id="XMLID_964_"><g id="XMLID_965_"><g id="XMLID_967_"><g id="XMLID_968_"><g id="XMLID_972_"><g id="XMLID_974_"><g id="XMLID_975_"><g id="XMLID_976_"><g id="XMLID_977_"><g id="XMLID_978_"><circle cx="256" cy="256" fill="#fedd55" r="256"/></g></g></g></g></g></g></g></g></g></g></g></g></g></g></g></g><path d="m512 256c0-34.055-6.666-66.548-18.738-96.269l-59.391-59.391-32.371-4.84-41.865-40.967-275.921 294.713 86.377 86.732-9.591 24.522 46.866 46.866c15.748 3.029 32.002 4.634 48.634 4.634 141.385 0 256-114.615 256-256z" fill="#fcc63d"/><g><g><path d="m312.905 346.653h-113.81l-15.955 89.347h145.72z" fill="#776d6b"/><path d="m328.86 436h-72.86v-89.35h56.91l1.13 6.35 12.68 71z" fill="#57555c"/><path d="m416.227 353h-320.454c-11.769 0-21.399-9.629-21.399-21.398v-219.204c0-11.769 9.63-21.398 21.399-21.398h320.454c11.769 0 21.398 9.629 21.398 21.398v219.203c0 11.77-9.629 21.399-21.398 21.399z" fill="#8e8382"/><path d="m437.63 112.4v219.2c0 11.77-9.63 21.4-21.4 21.4h-160.23v-262h160.23c11.77 0 21.4 9.63 21.4 21.4z" fill="#776d6b"/><path d="m109.242 125.307h293.516v193.387h-293.516z" fill="#5eefee"/><g><path d="m256 125.31h146.76v193.38h-146.76z" fill="#54c9fc"/></g><path d="m160.5 424h191v36.5h-191z" fill="#8e8382"/><path d="m256 424h95.5v36.5h-95.5z" fill="#776d6b"/></g><path d="m152.365 54.533h207.27v264.16h-207.27z" fill="#fff"/><path d="m256 54.53h103.63v264.16h-103.63z" fill="#eae1dc"/><g><g><path d="m190.833 178.25h65.167v30h-65.167z" fill="#776d6b"/></g><g><g><path d="m288.833 178.25h32.333v30h-32.333z" fill="#57555c"/></g></g></g><g><g><path d="m256 235.75h65.167v30h-65.167z" fill="#57555c"/></g><g><path d="m190.833 235.75h32.333v30h-32.333z" fill="#776d6b"/></g></g><path d="m190.833 105.833h130.333v35.667h-130.333z" fill="#54c9fc"/><path d="m256 105.83h65.17v35.67h-65.17z" fill="#238cf8"/></g></g></svg>