<svg id="Capa_1" enable-background="new 0 0 512 512" height="512" viewBox="0 0 512 512" width="512" xmlns="http://www.w3.org/2000/svg"><g><path d="m155.871 502.419h200.258c28.615 0 30.968-22.865 30.968-39.968v-431.483c0-17.103-13.865-30.968-30.968-30.968h-200.258c-17.103 0-30.968 13.865-30.968 30.968v431.484c0 17.103 3.674 39.967 30.968 39.967z" fill="#434d59"/><path d="m156.98 481.509h198.04c8.163 0 10.331-13.625 10.331-19.331v-430.936c0-5.706-4.625-10.331-10.331-10.331h-198.04c-5.706 0-10.331 4.625-10.331 10.331v430.937c0 5.705 1.612 19.33 10.331 19.33z" fill="#bed8fb"/><path d="m296.994 31.815h-81.988c-9.173 0-17.246-6.053-19.817-14.858l-4.952-16.957h131.526l-4.951 16.957c-2.572 8.805-10.645 14.858-19.818 14.858z" fill="#434d59"/><path d="m355.02 472.509h-198.04c-5.706 0-10.331-4.625-10.331-10.331v18.581c0 5.706 4.625 10.331 10.331 10.331h198.04c5.706 0 10.331-4.625 10.331-10.331v-18.581c0 5.706-4.625 10.331-10.331 10.331z" fill="#a3caf7"/><g fill="#434d59"><path d="m223.701 216.609c-.098-.097.097.097 0 0z"/><path d="m219.988 221.022c23.198 23.064 46.817 28.023 64.075 28.973 15.689.865 28.973-7.058 32.871-14.779l-13.969-11.518c-3.786-3.122-9.386-2.585-12.51 1.2l-5.534 6.706s-17.161 3.178-38.988-18.649-18.649-38.988-18.649-38.988l6.706-5.534c3.785-3.123 4.322-8.723 1.2-12.51l-14.039-17.025c-3.507-4.253-10.025-4.344-13.595-.143-4.288 5.044-9.068 13.032-10.7 24.564-.344 14.449 2.873 37.327 23.132 57.703z"/></g><path d="m290.475 338.56c0 9.29 13.247 25.802 24.384 25.802s24.384-15.905 24.384-25.802c-3.745-9.822-13.247-16.802-24.384-16.802s-20.639 6.98-24.384 16.802z" fill="#b3e59f"/><g fill="#3b434d"><path d="m319.992 237.737-3.057-2.521c-6.988 4.915-17.867 9.584-33.555 8.719-17.259-.951-36.481-4.263-59.679-27.327.097.098-.098-.097 0 0-20.259-20.376-25.278-37.685-26.843-53.29-.523 3.695-.729 7.747-.484 12.192.951 17.259 4.263 36.481 27.327 59.679 23.198 23.064 42.42 26.376 59.679 27.327 18.317 1.009 30.095-5.523 36.755-11.184 4.2-3.57 4.11-10.088-.143-13.595z"/><path d=""/></g><path d="m356.129 493.419h-200.258c-17.103 0-30.968-13.865-30.968-30.968v18.581c0 17.103 13.865 30.968 30.968 30.968h200.258c17.103 0 30.968-13.865 30.968-30.968v-18.581c0 17.104-13.865 30.968-30.968 30.968z" fill="#3b434d"/><path d="m180.261 338.56c0 9.29 13.247 25.802 24.384 25.802s24.384-14.883 24.384-25.802c-3.745-9.822-13.247-16.802-24.384-16.802s-20.64 6.98-24.384 16.802z" fill="#df667c"/><path d="m204.644 355.362c-11.137 0-20.639-6.98-24.384-16.802-1.101 2.887-1.709 6.017-1.709 9.29 0 14.411 11.682 26.093 26.093 26.093s26.093-11.682 26.093-26.093c0-3.273-.608-6.403-1.709-9.29-3.745 9.822-13.247 16.802-24.384 16.802z" fill="#db4858"/><path d="m314.859 355.362c-11.137 0-20.639-6.98-24.384-16.802-1.101 2.887-1.709 6.017-1.709 9.29 0 14.411 11.682 26.093 26.093 26.093s26.093-11.682 26.093-26.093c0-3.273-.608-6.403-1.709-9.29-3.745 9.822-13.247 16.802-24.384 16.802z" fill="#95d6a4"/></g></svg>