<svg id="Flat" height="512" viewBox="0 0 512 512" width="512" xmlns="http://www.w3.org/2000/svg"><path d="m134.132 319.775a8 8 0 0 1 -5.657-13.657l245.233-245.233a8 8 0 0 1 11.314 11.315l-245.233 245.232a7.974 7.974 0 0 1 -5.657 2.343z" fill="#dadcde"/><path d="m400 192a143.845 143.845 0 1 1 -1.99-24 143.458 143.458 0 0 1 1.99 24z" fill="#3397e8"/><path d="m272 128a40.015 40.015 0 0 1 -40 40h-118.01a143.627 143.627 0 0 1 42.42-80h75.59a40 40 0 0 1 40 40z" fill="#3dc285"/><path d="m400 192a143.458 143.458 0 0 1 -11.3 56h-68.7a40 40 0 0 1 0-80h78.01a144.841 144.841 0 0 1 1.99 24z" fill="#38b37a"/><path d="m248 256a40.015 40.015 0 0 1 -40 40h-51.59a143.627 143.627 0 0 1 -42.42-80h94.01a40 40 0 0 1 40 40z" fill="#3dc285"/><path d="m240 384h32v40h-32z" fill="#dadcde"/><path d="m216 424h80a16 16 0 0 1 16 16v16a0 0 0 0 1 0 0h-112a0 0 0 0 1 0 0v-16a16 16 0 0 1 16-16z" fill="#1261a0"/><path d="m176 456h160v32h-160z" fill="#3397e8"/><path d="m456 190.785c0 111.133-90.082 201.215-201.215 201.215a201.037 201.037 0 0 1 -166.785-88.6l20.779-20.779a172.483 172.483 0 1 0 237.84-237.84l20.781-20.781a201.037 201.037 0 0 1 88.6 166.785z" fill="#1261a0"/></svg>