<svg height="448pt" viewBox="-96 0 448 448" width="448pt" xmlns="http://www.w3.org/2000/svg"><path d="m56 0v64h144v-64zm64 48h-16v-16h-16v16h-16v-24c0-4.417969 3.582031-8 8-8h32c4.417969 0 8 3.582031 8 8zm64 0h-16v-16h-16v16h-16v-24c0-4.417969 3.582031-8 8-8h32c4.417969 0 8 3.582031 8 8zm0 0"/><path d="m232 317.070312c0-1.621093.496094-3.207031 1.417969-4.542968 30.109375-43.664063 30.109375-101.390625 0-145.054688-.921875-1.335937-1.417969-2.921875-1.417969-4.542968v-82.929688h-208v82.929688c0 1.621093-.492188 3.207031-1.414062 4.542968-30.113282 43.664063-30.113282 101.390625 0 145.054688.921874 1.335937 1.414062 2.921875 1.414062 4.542968v106.929688c0 13.253906 10.746094 24 24 24h8v-40h16v40h16v-40h16v40h16v-40h16v40h16v-40h16v40h16v-40h16v40h8c13.253906 0 24-10.746094 24-24zm-104 34.929688c-61.855469 0-112-50.144531-112-112s50.144531-112 112-112 112 50.144531 112 112c-.066406 61.828125-50.171875 111.933594-112 112zm0 0"/><path d="m224 240c0 53.019531-42.980469 96-96 96s-96-42.980469-96-96 42.980469-96 96-96 96 42.980469 96 96zm0 0"/></svg>