<svg xmlns="http://www.w3.org/2000/svg" xmlns:xlink="http://www.w3.org/1999/xlink" width="1920" height="1080" viewBox="0 0 1920 1080">
  <defs>
    <style>
      .cls-1 {
        clip-path: url(#clip-Web_1920_2);
      }

      .cls-2, .cls-3, .cls-4, .cls-5 {
        fill: #9359b2;
      }

      .cls-2 {
        opacity: 0.42;
      }

      .cls-3 {
        opacity: 0.23;
      }

      .cls-4 {
        opacity: 0.19;
      }

      .cls-5 {
        opacity: 0.22;
      }

      .cls-6 {
        fill: #fff;
      }
    </style>
    <clipPath id="clip-Web_1920_2">
      <rect width="1920" height="1080"/>
    </clipPath>
  </defs>
  <g id="Web_1920_2" data-name="Web 1920 – 2" class="cls-1">
    <rect class="cls-6" width="1920" height="1080"/>
    <path id="Exclusion_4" data-name="Exclusion 4" class="cls-2" d="M812,1624a824.982,824.982,0,0,1-83.023-4.192,814.091,814.091,0,0,1-80.624-12.3c-26.16-5.353-52.342-12.085-77.818-20.009-25.193-7.836-50.293-17.023-74.6-27.305C471.846,1550,447.965,1538.5,424.953,1526c-22.849-12.412-45.374-26.1-66.949-40.673-21.474-14.508-42.506-30.235-62.511-46.744-19.959-16.472-39.36-34.1-57.663-52.408s-35.937-37.705-52.408-57.663c-16.511-20.006-32.238-41.038-46.744-62.51-14.576-21.576-28.26-44.1-40.673-66.949-12.5-23.012-24.005-46.893-34.193-70.98-10.283-24.312-19.47-49.412-27.305-74.6-7.924-25.475-14.656-51.657-20.009-77.818a814.043,814.043,0,0,1-12.3-80.624,824.169,824.169,0,0,1,0-166.045,814.037,814.037,0,0,1,12.3-80.624c5.353-26.16,12.085-52.342,20.009-77.818,7.835-25.191,17.022-50.291,27.305-74.6C74,471.846,85.5,447.965,98,424.953,110.417,402.1,124.1,379.579,138.677,358c14.507-21.473,30.234-42.5,46.744-62.511,16.472-19.959,34.1-39.36,52.408-57.663s37.7-35.936,57.663-52.408C315.5,168.911,336.53,153.184,358,138.677,379.579,124.1,402.1,110.417,424.953,98,447.965,85.5,471.846,74,495.933,63.811c24.312-10.283,49.412-19.47,74.6-27.305,25.476-7.924,51.657-14.656,77.818-20.009a814.037,814.037,0,0,1,80.624-12.3,824.169,824.169,0,0,1,166.045,0,814.043,814.043,0,0,1,80.624,12.3c26.161,5.353,52.342,12.085,77.818,20.009,25.191,7.835,50.291,17.022,74.6,27.305C1152.155,74,1176.036,85.5,1199.048,98c22.849,12.412,45.374,26.1,66.949,40.673,21.472,14.507,42.5,30.234,62.51,46.744,19.958,16.471,39.359,34.1,57.663,52.408s35.936,37.7,52.408,57.663c16.51,20,32.236,41.036,46.744,62.511,14.576,21.576,28.26,44.1,40.673,66.949,12.5,23.012,24.005,46.893,34.193,70.98,10.282,24.311,19.469,49.411,27.305,74.6,7.924,25.476,14.656,51.657,20.009,77.818a814.091,814.091,0,0,1,12.3,80.624,824.175,824.175,0,0,1,0,166.045,814.1,814.1,0,0,1-12.3,80.624c-5.353,26.161-12.085,52.342-20.009,77.818-7.836,25.193-17.023,50.293-27.305,74.6-10.188,24.087-21.692,47.969-34.193,70.98-12.412,22.849-26.1,45.374-40.673,66.949-14.507,21.473-30.234,42.5-46.744,62.51-16.471,19.958-34.1,39.359-52.408,57.663s-37.705,35.937-57.663,52.408c-20.005,16.51-41.037,32.237-62.51,46.744-21.576,14.576-44.1,28.26-66.949,40.673-23.012,12.5-46.893,24.005-70.98,34.193-24.31,10.282-49.411,19.469-74.6,27.305-25.475,7.924-51.657,14.656-77.818,20.009a814.1,814.1,0,0,1-80.624,12.3A824.973,824.973,0,0,1,812,1624Zm0-1177.561c-201.571,0-365.562,163.99-365.562,365.562S610.429,1177.561,812,1177.561,1177.561,1013.571,1177.561,812,1013.571,446.439,812,446.439Z" transform="translate(1108 -220)"/>
    <path id="Exclusion_5" data-name="Exclusion 5" class="cls-2" d="M422,844a428.766,428.766,0,0,1-43.147-2.179,423.1,423.1,0,0,1-41.9-6.395c-13.6-2.782-27.2-6.281-40.442-10.4-13.093-4.072-26.137-8.847-38.772-14.191-12.518-5.295-24.929-11.273-36.889-17.77-11.875-6.451-23.581-13.562-34.794-21.138-11.16-7.54-22.09-15.713-32.487-24.293-10.373-8.56-20.455-17.724-29.968-27.237s-18.677-19.6-27.237-29.968c-8.581-10.4-16.754-21.328-24.293-32.487C64.5,646.731,57.384,635.025,50.933,623.15c-6.5-11.959-12.476-24.371-17.77-36.889-5.344-12.635-10.119-25.68-14.191-38.772-4.118-13.24-7.617-26.846-10.4-40.442a423.062,423.062,0,0,1-6.395-41.9,428.324,428.324,0,0,1,0-86.294,423.062,423.062,0,0,1,6.395-41.9c2.782-13.6,6.281-27.2,10.4-40.442,4.072-13.092,8.846-26.136,14.191-38.772,5.295-12.518,11.274-24.929,17.77-36.889,6.451-11.875,13.563-23.581,21.138-34.794,7.539-11.16,15.713-22.09,24.293-32.487,8.56-10.373,17.724-20.455,27.237-29.968s19.6-18.676,29.968-27.237c10.4-8.58,21.327-16.754,32.487-24.293,11.213-7.575,22.919-14.687,34.794-21.138,11.959-6.5,24.37-12.476,36.889-17.77,12.635-5.344,25.68-10.119,38.772-14.191,13.24-4.118,26.847-7.617,40.442-10.4a423.062,423.062,0,0,1,41.9-6.395,428.324,428.324,0,0,1,86.294,0,423.062,423.062,0,0,1,41.9,6.395c13.6,2.782,27.2,6.281,40.442,10.4,13.092,4.072,26.136,8.846,38.772,14.191,12.518,5.295,24.93,11.274,36.889,17.77,11.875,6.451,23.581,13.563,34.794,21.138,11.159,7.539,22.09,15.713,32.487,24.293,10.372,8.56,20.455,17.724,29.968,27.237s18.676,19.6,27.237,29.968c8.58,10.4,16.753,21.327,24.293,32.487,7.575,11.213,14.687,22.919,21.138,34.794,6.5,11.959,12.476,24.37,17.77,36.889,5.344,12.634,10.118,25.679,14.191,38.772,4.118,13.24,7.617,26.847,10.4,40.442a423.1,423.1,0,0,1,6.395,41.9,428.32,428.32,0,0,1,0,86.294,423.1,423.1,0,0,1-6.395,41.9c-2.782,13.6-6.281,27.2-10.4,40.442-4.072,13.093-8.847,26.137-14.191,38.772-5.295,12.518-11.273,24.93-17.77,36.889-6.451,11.875-13.562,23.581-21.138,34.794-7.539,11.16-15.713,22.09-24.293,32.487-8.56,10.372-17.724,20.455-27.237,29.968s-19.6,18.676-29.968,27.237c-10.4,8.58-21.327,16.754-32.487,24.293-11.213,7.575-22.919,14.687-34.794,21.138-11.959,6.5-24.371,12.476-36.889,17.77-12.634,5.344-25.679,10.118-38.772,14.191-13.24,4.118-26.846,7.617-40.442,10.4a423.1,423.1,0,0,1-41.9,6.395A428.761,428.761,0,0,1,422,844Zm0-611.983c-104.758,0-189.984,85.226-189.984,189.984S317.243,611.984,422,611.984,611.984,526.757,611.984,422,526.757,232.016,422,232.016Z" transform="translate(-422 658)"/>
    <path id="Polygon_1" data-name="Polygon 1" class="cls-3" d="M32.5,0,65,23.682,52.586,62H12.414L0,23.682Z" transform="matrix(0.996, 0.087, -0.087, 0.996, 729.326, 788.285)"/>
    <path id="Polygon_4" data-name="Polygon 4" class="cls-3" d="M32.5,0,65,23.682,52.586,62H12.414L0,23.682Z" transform="translate(961.984 657.852) rotate(17)"/>
    <path id="Polygon_3" data-name="Polygon 3" class="cls-3" d="M32.5,0,65,23.682,52.586,62H12.414L0,23.682Z" transform="matrix(0.966, 0.259, -0.259, 0.966, 677.631, 618.645)"/>
    <path id="Polygon_2" data-name="Polygon 2" class="cls-3" d="M86.5,0,173,62.642,139.96,164H33.04L0,62.642Z" transform="matrix(0.951, -0.309, 0.309, 0.951, 320.394, 645.743)"/>
    <path id="Polygon_7" data-name="Polygon 7" class="cls-4" d="M44.5,0,89,32.085,72,84H17L0,32.085Z" transform="translate(946.618 318.556) rotate(9)"/>
    <path id="Polygon_6" data-name="Polygon 6" class="cls-5" d="M86.5,0,173,62.642,139.96,164H33.04L0,62.642Z" transform="matrix(0.951, -0.309, 0.309, 0.951, 852.394, 69.743)"/>
    <path id="Polygon_5" data-name="Polygon 5" class="cls-3" d="M57.5,0,115,41.252,93.037,108H21.963L0,41.252Z" transform="matrix(0.951, -0.309, 0.309, 0.951, 481.627, 893.411)"/>
  </g>
</svg>
