<svg xmlns="http://www.w3.org/2000/svg" xmlns:xlink="http://www.w3.org/1999/xlink" width="1920" height="1080" viewBox="0 0 1920 1080">
  <defs>
    <style>
      .cls-1 {
        clip-path: url(#clip-Web_1920_1);
      }

      .cls-2 {
        fill: #0fb3bf;
        opacity: 0.2;
      }

      .cls-3 {
        opacity: 0.8;
      }

      .cls-4 {
        fill: #92daf0;
      }

      .cls-4, .cls-5 {
        opacity: 0.53;
      }

      .cls-5 {
        fill: #c5ebf7;
      }

      .cls-6 {
        fill: #abdce3;
        opacity: 0.36;
      }

      .cls-7, .cls-8 {
        stroke: none;
      }

      .cls-8 {
        fill: #707070;
      }

      .cls-9 {
        fill: #fff;
      }
    </style>
    <clipPath id="clip-Web_1920_1">
      <rect width="1920" height="1080"/>
    </clipPath>
  </defs>
  <g id="Web_1920_1" data-name="Web 1920 – 1" class="cls-1">
    <rect class="cls-9" width="1920" height="1080"/>
    <g id="Group_4" data-name="Group 4">
      <g id="Exclusion_1" data-name="Exclusion 1" class="cls-2" transform="translate(1068 -751)">
        <path class="cls-7" d="M 750.9996337890625 1501.5 C 725.39599609375 1501.5 699.5787353515625 1500.196411132813 674.264892578125 1497.625122070313 C 649.312744140625 1495.09130859375 624.241455078125 1491.264892578125 599.7474365234375 1486.252319335938 C 575.5712890625 1481.305419921875 551.3727416992188 1475.08349609375 527.8241577148438 1467.759033203125 C 504.5401916503906 1460.51708984375 481.3412780761719 1452.026123046875 458.8716430664063 1442.522216796875 C 436.60546875 1433.104125976563 414.5328979492188 1422.471313476563 393.2674560546875 1410.919067382813 C 372.1490783691406 1399.44677734375 351.3301696777344 1386.798950195313 331.388916015625 1373.326538085938 C 311.5472717285156 1359.92236328125 292.1083679199219 1345.386352539063 273.612548828125 1330.122314453125 C 255.1667327880859 1314.8994140625 237.2352752685547 1298.602172851563 220.3165435791016 1281.683471679688 C 203.4005432128906 1264.767578125 187.103271484375 1246.836181640625 171.8776397705078 1228.387451171875 C 156.6187286376953 1209.897827148438 142.0827331542969 1190.459106445313 128.6734619140625 1170.611328125 C 115.1994552612305 1150.666748046875 102.5516357421875 1129.84765625 91.08109283447266 1108.732177734375 C 79.52854919433594 1087.466186523438 68.89563751220703 1065.393798828125 59.47800064086914 1043.128051757813 C 49.97418212890625 1020.658569335938 41.48327255249023 997.4596557617188 34.24109268188477 974.1756591796875 C 26.91745376586914 950.6292724609375 20.69527244567871 926.4305419921875 15.74763679504395 902.252197265625 C 10.73509120941162 877.7568969726563 6.908727169036865 852.6856079101563 4.374908924102783 827.7345581054688 C 1.803636312484741 802.4171142578125 0.5 776.5997924804688 0.5 750.9996337890625 C 0.5 725.399658203125 1.803636312484741 699.5823364257813 4.374908924102783 674.264892578125 C 6.90854549407959 649.3143920898438 10.73490905761719 624.2431030273438 15.74763679504395 599.7474365234375 C 20.69527244567871 575.569091796875 26.91745376586914 551.3705444335938 34.24109268188477 527.8241577148438 C 41.48308944702148 504.5401916503906 49.9739990234375 481.3412780761719 59.47800064086914 458.8716430664063 C 68.89454650878906 436.6085510253906 79.52745819091797 414.5360107421875 91.08109283447266 393.2674560546875 C 102.5521850585938 372.1509094238281 115.2001800537109 351.3320007324219 128.6734619140625 331.388916015625 C 142.0809020996094 311.54345703125 156.6169128417969 292.104736328125 171.8776397705078 273.612548828125 C 187.1009063720703 255.1663665771484 203.3981781005859 237.2349090576172 220.3165435791016 220.3165435791016 C 237.2349090576172 203.3981781005859 255.1663665771484 187.1009063720703 273.612548828125 171.8776397705078 C 292.104736328125 156.6169128417969 311.54345703125 142.0809020996094 331.388916015625 128.6734619140625 C 351.3320007324219 115.2001800537109 372.1509094238281 102.5521850585938 393.2674560546875 91.08109283447266 C 414.5360107421875 79.52745819091797 436.6085510253906 68.89454650878906 458.8716430664063 59.47800064086914 C 481.3412780761719 49.9739990234375 504.5401916503906 41.48308944702148 527.8241577148438 34.24109268188477 C 551.3705444335938 26.91745376586914 575.569091796875 20.69527244567871 599.7474365234375 15.74763679504395 C 624.2431030273438 10.73490905761719 649.3143920898438 6.90854549407959 674.264892578125 4.374908924102783 C 699.5823364257813 1.803636312484741 725.399658203125 0.5 750.9996337890625 0.5 C 776.5997924804688 0.5 802.4171142578125 1.803636312484741 827.7345581054688 4.374908924102783 C 852.6856079101563 6.908727169036865 877.7568969726563 10.73509120941162 902.252197265625 15.74763679504395 C 926.4305419921875 20.69527244567871 950.6292724609375 26.91745376586914 974.1756591796875 34.24109268188477 C 997.4596557617188 41.48327255249023 1020.658569335938 49.97418212890625 1043.128051757813 59.47800064086914 C 1065.393798828125 68.89563751220703 1087.466186523438 79.52854919433594 1108.732177734375 91.08109283447266 C 1129.84765625 102.5516357421875 1150.666748046875 115.1994552612305 1170.611328125 128.6734619140625 C 1190.459106445313 142.0827331542969 1209.897827148438 156.6187286376953 1228.387451171875 171.8776397705078 C 1246.836181640625 187.103271484375 1264.767578125 203.4005432128906 1281.683471679688 220.3165435791016 C 1298.602172851563 237.2352752685547 1314.8994140625 255.1667327880859 1330.122314453125 273.612548828125 C 1345.386352539063 292.1083679199219 1359.92236328125 311.5472717285156 1373.326538085938 331.388916015625 C 1386.798950195313 351.3301696777344 1399.44677734375 372.1490783691406 1410.919067382813 393.2674560546875 C 1422.471313476563 414.5328979492188 1433.104125976563 436.60546875 1442.522216796875 458.8716430664063 C 1452.026123046875 481.3412780761719 1460.51708984375 504.5401916503906 1467.759033203125 527.8241577148438 C 1475.08349609375 551.3727416992188 1481.305419921875 575.5712890625 1486.252319335938 599.7474365234375 C 1491.264892578125 624.241455078125 1495.09130859375 649.312744140625 1497.625122070313 674.264892578125 C 1500.196411132813 699.5787353515625 1501.5 725.39599609375 1501.5 750.9996337890625 C 1501.5 776.603271484375 1500.196411132813 802.4207153320313 1497.625122070313 827.7345581054688 C 1495.091064453125 852.6874389648438 1491.264770507813 877.7587280273438 1486.252319335938 902.252197265625 C 1481.305419921875 926.4283447265625 1475.08349609375 950.6268920898438 1467.759033203125 974.1756591796875 C 1460.516967773438 997.4596557617188 1452.026000976563 1020.658569335938 1442.522216796875 1043.128051757813 C 1433.103759765625 1065.395263671875 1422.470947265625 1087.4677734375 1410.919067382813 1108.732177734375 C 1399.447631835938 1129.849487304688 1386.799682617188 1150.668579101563 1373.326538085938 1170.611328125 C 1359.918334960938 1190.458374023438 1345.38232421875 1209.896850585938 1330.122314453125 1228.387451171875 C 1314.89892578125 1246.833984375 1298.601806640625 1264.765258789063 1281.683471679688 1281.683471679688 C 1264.765258789063 1298.601806640625 1246.833984375 1314.89892578125 1228.387451171875 1330.122314453125 C 1209.896850585938 1345.38232421875 1190.458374023438 1359.918334960938 1170.611328125 1373.326538085938 C 1150.668579101563 1386.799682617188 1129.849487304688 1399.447631835938 1108.732177734375 1410.919067382813 C 1087.4677734375 1422.470947265625 1065.395263671875 1433.103759765625 1043.128051757813 1442.522216796875 C 1020.658569335938 1452.026000976563 997.4596557617188 1460.516967773438 974.1756591796875 1467.759033203125 C 950.6268920898438 1475.08349609375 926.4283447265625 1481.305419921875 902.252197265625 1486.252319335938 C 877.7587280273438 1491.264770507813 852.6874389648438 1495.091064453125 827.7345581054688 1497.625122070313 C 802.4207153320313 1500.196411132813 776.603271484375 1501.5 750.9996337890625 1501.5 Z M 750.9996337890625 429.5001831054688 C 573.7241821289063 429.5001831054688 429.5001831054688 573.7241821289063 429.5001831054688 750.9996337890625 C 429.5001831054688 928.2754516601563 573.7241821289063 1072.499877929688 750.9996337890625 1072.499877929688 C 928.2754516601563 1072.499877929688 1072.499877929688 928.2754516601563 1072.499877929688 750.9996337890625 C 1072.499877929688 573.7241821289063 928.2754516601563 429.5001831054688 750.9996337890625 429.5001831054688 Z"/>
        <path class="cls-8" d="M 750.9995727539063 1501 C 776.5858154296875 1501 802.38623046875 1499.697143554688 827.6842041015625 1497.127807617188 C 852.6198120117188 1494.595581054688 877.6743774414063 1490.771850585938 902.1519775390625 1485.762451171875 C 926.3134155273438 1480.818603515625 950.4957885742188 1474.600830078125 974.0272216796875 1467.281616210938 C 997.2952270507813 1460.04443359375 1020.478576660156 1451.559204101563 1042.933227539063 1442.061645507813 C 1065.183349609375 1432.650634765625 1087.2412109375 1422.025024414063 1108.49365234375 1410.479614257813 C 1129.597045898438 1399.015625 1150.402221679688 1386.376220703125 1170.331176757813 1372.912353515625 C 1190.1650390625 1359.512817382813 1209.590942382813 1344.986450195313 1228.069213867188 1329.73681640625 C 1246.501831054688 1314.524780273438 1264.42138671875 1298.238403320313 1281.329956054688 1281.330200195313 C 1298.238403320313 1264.42138671875 1314.524780273438 1246.501831054688 1329.73681640625 1228.069213867188 C 1344.986450195313 1209.590942382813 1359.512817382813 1190.1650390625 1372.912353515625 1170.331176757813 C 1386.376220703125 1150.402221679688 1399.015625 1129.597045898438 1410.479614257813 1108.49365234375 C 1422.025024414063 1087.2412109375 1432.650634765625 1065.183349609375 1442.061645507813 1042.933227539063 C 1451.559204101563 1020.478576660156 1460.04443359375 997.2952270507813 1467.281616210938 974.0272216796875 C 1474.600830078125 950.4957885742188 1480.818603515625 926.3134155273438 1485.762573242188 902.1519775390625 C 1490.771850585938 877.6743774414063 1494.595581054688 852.6198120117188 1497.127807617188 827.6842041015625 C 1499.697143554688 802.38623046875 1501 776.5858154296875 1501 750.9995727539063 C 1501 725.4133911132813 1499.697143554688 699.6132202148438 1497.127807617188 674.3154296875 C 1494.595581054688 649.3800048828125 1490.771850585938 624.3256225585938 1485.762451171875 599.8477783203125 C 1480.818603515625 575.6864013671875 1474.600830078125 551.5040283203125 1467.281616210938 527.9725952148438 C 1460.04443359375 504.70458984375 1451.559204101563 481.5212097167969 1442.061645507813 459.0665893554688 C 1432.651000976563 436.8174133300781 1422.025390625 414.7596130371094 1410.479614257813 393.5061950683594 C 1399.015258789063 372.4021911621094 1386.375854492188 351.5971984863281 1372.912353515625 331.6687927246094 C 1359.515380859375 311.8381958007813 1344.989013671875 292.4122009277344 1329.73681640625 273.9307861328125 C 1314.523193359375 255.4962005615234 1298.23681640625 237.5767974853516 1281.329956054688 220.6701965332031 C 1264.424194335938 203.764404296875 1246.504760742188 187.4779968261719 1228.069213867188 172.2631988525391 C 1209.589233398438 157.0124053955078 1190.163452148438 142.4859924316406 1170.331176757813 129.0877990722656 C 1150.402221679688 115.6240005493164 1129.597045898438 102.9845962524414 1108.49365234375 91.52059936523438 C 1087.2412109375 79.97519683837891 1065.183349609375 69.34960174560547 1042.933227539063 59.9385986328125 C 1020.477416992188 50.44039916992188 997.2940063476563 41.9552001953125 974.0272216796875 34.71839904785156 C 950.4957885742188 27.39940071105957 926.3134155273438 21.18160057067871 902.1519775390625 16.23740005493164 C 877.6718139648438 11.22819995880127 852.6171875 7.404399871826172 827.6842041015625 4.872399806976318 C 802.385009765625 2.302799940109253 776.5845947265625 1 750.9995727539063 1 C 725.414794921875 1 699.6143798828125 2.302799940109253 674.3154296875 4.872399806976318 C 649.3826293945313 7.404399871826172 624.3281860351563 11.22819995880127 599.8477783203125 16.23740005493164 C 575.6864013671875 21.18160057067871 551.5040283203125 27.39940071105957 527.9725952148438 34.71839904785156 C 504.705810546875 41.9552001953125 481.5223999023438 50.44039916992188 459.0665893554688 59.9385986328125 C 436.8174133300781 69.34919738769531 414.7596130371094 79.97480010986328 393.5061950683594 91.52059936523438 C 372.4021911621094 102.9850006103516 351.5971984863281 115.624397277832 331.6687927246094 129.0877990722656 C 311.8367919921875 142.4859924316406 292.4107971191406 157.0124053955078 273.9307861328125 172.2631988525391 C 255.49560546875 187.4776000976563 237.5762023925781 203.7640075683594 220.6701965332031 220.6701965332031 C 203.7640075683594 237.5762023925781 187.4776000976563 255.49560546875 172.2631988525391 273.9307861328125 C 157.0124053955078 292.4107971191406 142.4859924316406 311.8367919921875 129.0877990722656 331.6687927246094 C 115.624397277832 351.5971984863281 102.9850006103516 372.4021911621094 91.52059936523438 393.5061950683594 C 79.97480010986328 414.7596130371094 69.34919738769531 436.8174133300781 59.9385986328125 459.0665893554688 C 50.44039916992188 481.5223999023438 41.9552001953125 504.705810546875 34.71839904785156 527.9725952148438 C 27.39940071105957 551.5040283203125 21.18160057067871 575.6864013671875 16.23740005493164 599.8477783203125 C 11.22819995880127 624.3281860351563 7.404399871826172 649.3826293945313 4.872399806976318 674.3154296875 C 2.302799940109253 699.6143798828125 1 725.414794921875 1 750.9995727539063 C 1 776.5845947265625 2.302799940109253 802.385009765625 4.872399806976318 827.6842041015625 C 7.404399871826172 852.6171875 11.22819995880127 877.6718139648438 16.23740005493164 902.1519775390625 C 21.18160057067871 926.3134155273438 27.39940071105957 950.4957885742188 34.71839904785156 974.0272216796875 C 41.9552001953125 997.2940063476563 50.44039916992188 1020.477416992188 59.9385986328125 1042.933227539063 C 69.34960174560547 1065.183349609375 79.97519683837891 1087.2412109375 91.52059936523438 1108.49365234375 C 102.9845962524414 1129.597045898438 115.6240005493164 1150.402221679688 129.0877990722656 1170.331176757813 C 142.4859924316406 1190.163452148438 157.0124053955078 1209.589233398438 172.2631988525391 1228.069213867188 C 187.4779968261719 1246.504760742188 203.764404296875 1264.424194335938 220.6701965332031 1281.329956054688 C 237.5767974853516 1298.23681640625 255.4962005615234 1314.523193359375 273.9307861328125 1329.73681640625 C 292.4122009277344 1344.989013671875 311.8381958007813 1359.515380859375 331.6687927246094 1372.912353515625 C 351.5971984863281 1386.375854492188 372.4021911621094 1399.015258789063 393.5061950683594 1410.479614257813 C 414.7596130371094 1422.025390625 436.8174133300781 1432.651000976563 459.0665893554688 1442.061645507813 C 481.5212097167969 1451.559204101563 504.70458984375 1460.04443359375 527.9725952148438 1467.281616210938 C 551.5040283203125 1474.600830078125 575.6864013671875 1480.818603515625 599.8477783203125 1485.762573242188 C 624.3256225585938 1490.771850585938 649.3800048828125 1494.595581054688 674.3154296875 1497.127807617188 C 699.6132202148438 1499.697143554688 725.4133911132813 1501 750.9995727539063 1501 M 750.9995727539063 429.0002136230469 C 928.5512084960938 429.0002136230469 1072.999755859375 573.4486083984375 1072.999755859375 750.9995727539063 C 1072.999755859375 928.5512084960938 928.5512084960938 1072.999755859375 750.9995727539063 1072.999755859375 C 573.4486083984375 1072.999755859375 429.0002136230469 928.5512084960938 429.0002136230469 750.9995727539063 C 429.0002136230469 573.4486083984375 573.4486083984375 429.0002136230469 750.9995727539063 429.0002136230469 M 750.9995727539063 1502 C 725.3814086914063 1502 699.5469970703125 1500.695556640625 674.2144165039063 1498.12255859375 C 649.2470092773438 1495.587158203125 624.1589965820313 1491.758422851563 599.6473999023438 1486.7421875 C 575.4520263671875 1481.791381835938 551.2371826171875 1475.56494140625 527.6755981445313 1468.236450195313 C 504.3768005371094 1460.98974609375 481.1622009277344 1452.4931640625 458.677001953125 1442.982543945313 C 436.3988037109375 1433.559814453125 414.3116149902344 1422.920043945313 393.02880859375 1411.3583984375 C 371.8970031738281 1399.878784179688 351.0639953613281 1387.222412109375 331.1090087890625 1373.740966796875 C 311.2506103515625 1360.3251953125 291.7990112304688 1345.779418945313 273.294189453125 1330.508056640625 C 254.8359985351563 1315.274780273438 236.8928070068359 1298.967041015625 219.9629974365234 1282.037231445313 C 203.033203125 1265.107177734375 186.7254028320313 1247.163818359375 171.4920043945313 1228.705810546875 C 156.2212066650391 1210.20166015625 141.6755981445313 1190.75 128.2592010498047 1170.890991210938 C 114.7776031494141 1150.935546875 102.1212005615234 1130.1025390625 90.64179992675781 1108.970947265625 C 79.08059692382813 1087.689208984375 68.44080352783203 1065.60205078125 59.01760101318359 1043.32275390625 C 49.50699996948242 1020.837585449219 41.01020050048828 997.6229858398438 33.76359939575195 974.32421875 C 26.43519973754883 950.7625732421875 20.20879936218262 926.5477905273438 15.25780010223389 902.3524169921875 C 10.24199962615967 877.8408203125 6.413000106811523 852.7526245117188 3.877599954605103 827.7852172851563 C 1.30460000038147 802.452392578125 0 776.6179809570313 0 750.9995727539063 C 0 725.3814086914063 1.30460000038147 699.5469970703125 3.877599954605103 674.2144165039063 C 6.413000106811523 649.2470092773438 10.24199962615967 624.1589965820313 15.25780010223389 599.6473999023438 C 20.20879936218262 575.4520263671875 26.43519973754883 551.2371826171875 33.76359939575195 527.6755981445313 C 41.01020050048828 504.3768005371094 49.50699996948242 481.1622009277344 59.01760101318359 458.677001953125 C 68.44039916992188 436.3988037109375 79.0802001953125 414.3116149902344 90.64179992675781 393.02880859375 C 102.1213989257813 371.8970031738281 114.7778015136719 351.0639953613281 128.2592010498047 331.1090087890625 C 141.6748046875 311.2511901855469 156.2203979492188 291.7994079589844 171.4920043945313 273.294189453125 C 186.7256011962891 254.8358001708984 203.0335998535156 236.8923950195313 219.9629974365234 219.9629974365234 C 236.8923950195313 203.0335998535156 254.8358001708984 186.7256011962891 273.294189453125 171.4920043945313 C 291.7994079589844 156.2203979492188 311.2511901855469 141.6748046875 331.1090087890625 128.2592010498047 C 351.0639953613281 114.7778015136719 371.8970031738281 102.1213989257813 393.02880859375 90.64179992675781 C 414.3116149902344 79.0802001953125 436.3988037109375 68.44039916992188 458.677001953125 59.01760101318359 C 481.1622009277344 49.50699996948242 504.3768005371094 41.01020050048828 527.6755981445313 33.76359939575195 C 551.2371826171875 26.43519973754883 575.4520263671875 20.20879936218262 599.6473999023438 15.25780010223389 C 624.1589965820313 10.24199962615967 649.2470092773438 6.413000106811523 674.2144165039063 3.877599954605103 C 699.5469970703125 1.30460000038147 725.3814086914063 0 750.9995727539063 0 C 776.6179809570313 0 802.452392578125 1.30460000038147 827.7852172851563 3.877599954605103 C 852.7526245117188 6.413000106811523 877.8408203125 10.24199962615967 902.3524169921875 15.25780010223389 C 926.5477905273438 20.20879936218262 950.7625732421875 26.43519973754883 974.32421875 33.76359939575195 C 997.6229858398438 41.01020050048828 1020.837585449219 49.50699996948242 1043.32275390625 59.01760101318359 C 1065.60205078125 68.44080352783203 1087.689208984375 79.08059692382813 1108.970947265625 90.64179992675781 C 1130.1025390625 102.1212005615234 1150.935546875 114.7776031494141 1170.890991210938 128.2592010498047 C 1190.75 141.6755981445313 1210.20166015625 156.2212066650391 1228.705810546875 171.4920043945313 C 1247.163818359375 186.7254028320313 1265.107177734375 203.033203125 1282.037231445313 219.9629974365234 C 1298.967041015625 236.8928070068359 1315.274780273438 254.8359985351563 1330.508056640625 273.294189453125 C 1345.779418945313 291.7990112304688 1360.3251953125 311.2506103515625 1373.740966796875 331.1090087890625 C 1387.222412109375 351.0639953613281 1399.878784179688 371.8970031738281 1411.3583984375 393.02880859375 C 1422.920043945313 414.3116149902344 1433.559814453125 436.3988037109375 1442.982543945313 458.677001953125 C 1452.4931640625 481.1622009277344 1460.98974609375 504.3768005371094 1468.236450195313 527.6755981445313 C 1475.56494140625 551.2371826171875 1481.791381835938 575.4520263671875 1486.7421875 599.6473999023438 C 1491.758422851563 624.1589965820313 1495.587158203125 649.2470092773438 1498.12255859375 674.2144165039063 C 1500.695556640625 699.5469970703125 1502 725.3814086914063 1502 750.9995727539063 C 1502 776.6179809570313 1500.695556640625 802.452392578125 1498.12255859375 827.7852172851563 C 1495.587158203125 852.7526245117188 1491.758422851563 877.8408203125 1486.7421875 902.3524169921875 C 1481.791381835938 926.5477905273438 1475.56494140625 950.7625732421875 1468.236450195313 974.32421875 C 1460.98974609375 997.6229858398438 1452.4931640625 1020.837585449219 1442.982543945313 1043.32275390625 C 1433.559448242188 1065.60205078125 1422.919555664063 1087.689208984375 1411.3583984375 1108.970947265625 C 1399.879028320313 1130.1025390625 1387.22265625 1150.935546875 1373.740966796875 1170.890991210938 C 1360.324340820313 1190.750244140625 1345.77880859375 1210.202026367188 1330.508056640625 1228.705810546875 C 1315.275146484375 1247.16357421875 1298.967163085938 1265.106811523438 1282.037231445313 1282.037231445313 C 1265.106811523438 1298.967163085938 1247.16357421875 1315.275146484375 1228.705810546875 1330.508056640625 C 1210.202026367188 1345.77880859375 1190.750244140625 1360.324340820313 1170.890991210938 1373.740966796875 C 1150.935546875 1387.22265625 1130.1025390625 1399.879028320313 1108.970947265625 1411.3583984375 C 1087.689208984375 1422.919555664063 1065.60205078125 1433.559448242188 1043.32275390625 1442.982543945313 C 1020.837585449219 1452.4931640625 997.6229858398438 1460.98974609375 974.32421875 1468.236450195313 C 950.7625732421875 1475.56494140625 926.5477905273438 1481.791381835938 902.3524169921875 1486.7421875 C 877.8408203125 1491.758422851563 852.7526245117188 1495.587158203125 827.7852172851563 1498.12255859375 C 802.452392578125 1500.695556640625 776.6179809570313 1502 750.9995727539063 1502 Z M 750.9995727539063 430.0002136230469 C 573.9998168945313 430.0002136230469 430.0002136230469 573.9998168945313 430.0002136230469 750.9995727539063 C 430.0002136230469 927.9998168945313 573.9998168945313 1071.999755859375 750.9995727539063 1071.999755859375 C 927.9998168945313 1071.999755859375 1071.999755859375 927.9998168945313 1071.999755859375 750.9995727539063 C 1071.999755859375 573.9998168945313 927.9998168945313 430.0002136230469 750.9995727539063 430.0002136230469 Z"/>
      </g>
      <g id="Group_2" data-name="Group 2" class="cls-3" transform="translate(-229 191)">
        <path id="Exclusion_3" data-name="Exclusion 3" class="cls-4" d="M613.5,1227a618.038,618.038,0,0,1-123.641-12.464,610.143,610.143,0,0,1-219.371-92.312A615.295,615.295,0,0,1,48.212,852.3,610.426,610.426,0,0,1,12.464,737.141a619.483,619.483,0,0,1,0-247.283,610.138,610.138,0,0,1,92.312-219.371A615.295,615.295,0,0,1,374.7,48.212a610.418,610.418,0,0,1,115.16-35.748,619.483,619.483,0,0,1,247.283,0,610.141,610.141,0,0,1,219.373,92.312A615.293,615.293,0,0,1,1178.788,374.7a610.4,610.4,0,0,1,35.748,115.16,619.488,619.488,0,0,1,0,247.283,610.147,610.147,0,0,1-92.312,219.373A615.293,615.293,0,0,1,852.3,1178.788a610.418,610.418,0,0,1-115.161,35.748A618.048,618.048,0,0,1,613.5,1227Zm1.811-930.2C439.681,296.8,296.8,439.681,296.8,615.31S439.681,933.824,615.31,933.824,933.824,790.939,933.824,615.31,790.939,296.8,615.31,296.8Z" transform="translate(-354 245)"/>
        <path id="Exclusion_2" data-name="Exclusion 2" class="cls-5" d="M169.5,339a170.754,170.754,0,0,1-34.16-3.444,168.572,168.572,0,0,1-60.609-25.5A170,170,0,0,1,13.32,235.477,168.651,168.651,0,0,1,3.444,203.66a171.153,171.153,0,0,1,0-68.32,168.571,168.571,0,0,1,25.5-60.609A170,170,0,0,1,103.523,13.32,168.649,168.649,0,0,1,135.34,3.444a171.153,171.153,0,0,1,68.32,0,168.572,168.572,0,0,1,60.609,25.5,170,170,0,0,1,61.411,74.575,168.645,168.645,0,0,1,9.877,31.817,171.154,171.154,0,0,1,0,68.32,168.573,168.573,0,0,1-25.5,60.609,170,170,0,0,1-74.575,61.411,168.649,168.649,0,0,1-31.817,9.877A170.757,170.757,0,0,1,169.5,339ZM170,82a88,88,0,1,0,88,88A88.1,88.1,0,0,0,170,82Z" transform="translate(90 689)"/>
      </g>
      <g id="Group_3" data-name="Group 3">
        <circle id="Ellipse_12" data-name="Ellipse 12" class="cls-6" cx="67.5" cy="67.5" r="67.5" transform="translate(960 803)"/>
        <circle id="Ellipse_18" data-name="Ellipse 18" class="cls-6" cx="67.5" cy="67.5" r="67.5" transform="translate(401 15)"/>
        <circle id="Ellipse_13" data-name="Ellipse 13" class="cls-6" cx="33.5" cy="33.5" r="33.5" transform="translate(1001 575)"/>
        <circle id="Ellipse_15" data-name="Ellipse 15" class="cls-6" cx="33.5" cy="33.5" r="33.5" transform="translate(797 684)"/>
        <circle id="Ellipse_14" data-name="Ellipse 14" class="cls-6" cx="33.5" cy="33.5" r="33.5" transform="translate(934 424)"/>
        <circle id="Ellipse_17" data-name="Ellipse 17" class="cls-6" cx="33.5" cy="33.5" r="33.5" transform="translate(826 150)"/>
        <circle id="Ellipse_16" data-name="Ellipse 16" class="cls-6" cx="33.5" cy="33.5" r="33.5" transform="translate(1213 682)"/>
      </g>
    </g>
  </g>
</svg>
